<svg xmlns="http://www.w3.org/2000/svg" viewBox="0 0 276.91 60.01"><defs><style>.cls-1{fill:#2B4570;}</style></defs><g id="Layer_2" data-name="Layer 2"><g id="Layer_1-2" data-name="Layer 1"><path class="cls-1" d="M116.73,49l-.11-17.27-8.23,13.86h-5.63L94.53,32.28V49H82.89V11.06H93.4l12.34,20.2,12-20.2h10.51l.1,37.9Z"/><path class="cls-1" d="M166.69,19.34,154.51,49.56c-3.25,8.12-8,10.45-14.29,10.45-3.25,0-7-1-9-2.66L135.29,49a7.57,7.57,0,0,0,4.33,1.57,3.68,3.68,0,0,0,3-1.19l-12.46-30h12.56l6.12,15.87,6.23-15.87Z"/><path class="cls-1" d="M205.86,38.51c0,6.61-5.58,10.45-16,10.45H168.5V11.06h20.25c10.45,0,15.32,4.17,15.32,9.91a8.83,8.83,0,0,1-5.25,8.17C203.26,30.77,205.86,34,205.86,38.51ZM181.06,20v5.64H187c2.87,0,4.17-1,4.17-2.82S189.88,20,187,20ZM193,37.05c0-1.95-1.41-3-4.22-3h-7.69v6h7.69C191.56,40,193,39,193,37.05Z"/><path class="cls-1" d="M209.88,8.79h12.23V49H209.88Z"/><path class="cls-1" d="M225.89,10.74c0-3.52,2.87-6.23,7.37-6.23s7.36,2.49,7.36,6c0,3.74-2.87,6.44-7.36,6.44S225.89,14.26,225.89,10.74Zm1.25,8.6h12.23V49H227.14Z"/><path class="cls-1" d="M242.48,34.13c0-9,7.2-15.33,17.22-15.33s17.21,6.34,17.21,15.33S269.77,49.5,259.7,49.5,242.48,43.11,242.48,34.13Zm22,0c0-3.85-2.12-5.8-4.82-5.8s-4.82,2-4.82,5.8S257,40,259.7,40,264.52,38,264.52,34.13Z"/><path class="cls-1" d="M32,0A32,32,0,0,0,13.35,58L12.64,39a.48.48,0,0,1,.14-.37.65.65,0,0,1,.45-.17,1.2,1.2,0,0,1,.58.22L33,51.94A6.14,6.14,0,0,0,37,53a4.15,4.15,0,0,0,2.7-1.71,4.08,4.08,0,0,0,.67-3.22,4.39,4.39,0,0,0-1.89-2.81L17.41,30.85l-.42-10a.54.54,0,0,1,.53-.56,1.19,1.19,0,0,1,.65.22L44,38.44c.51.46,5.06,2.94,7.13-.75s-1.62-6.25-1.78-6.37L24.08,13.91a1.32,1.32,0,0,1-.6-1h0l0-.88a.54.54,0,0,1,.54-.55,1.07,1.07,0,0,1,.64.22L51,30a6.52,6.52,0,0,1,2.67,5.45V55.6A32,32,0,0,0,32,0Z"/></g></g></svg>