<?xml version="1.0" encoding="utf-8"?>
<svg viewBox="222.404 195.183 637.237 637.237" style="" xmlns="http://www.w3.org/2000/svg">
  <g transform="matrix(0.9999999999999999, 0, 0, 0.9999999999999999, 540, 540)" id="e49c1213-a9e5-46e2-b2bf-318835f1056e"/>
  <g transform="matrix(0.9999999999999999, 0, 0, 0.9999999999999999, 540, 540)" id="e124c501-7a8e-4ed0-81b4-be81edd8fb9a"/>
  <g transform="matrix(0.9999999999999999, 0, 0, 0.9999999999999999, 539.97998046875, 513.22998046875)">
    <rect style="stroke: none; stroke-width: 1; stroke-dasharray: none; stroke-linecap: butt; stroke-dashoffset: 0; stroke-linejoin: miter; stroke-miterlimit: 4; fill: rgb(131,131,131); fill-rule: nonzero; opacity: 1;" vector-effect="non-scaling-stroke" x="-322.605" y="-322.605" rx="0" ry="0" width="645.21" height="645.21"/>
  </g>
  <g transform="matrix(-0.9999999999999999, 0, 0, -0.630000114440918, 793.5399780273438, 728.0700073242188)">
    <path style="stroke: none; stroke-width: 1; stroke-dasharray: none; stroke-linecap: butt; stroke-dashoffset: 0; stroke-linejoin: miter; stroke-miterlimit: 4; fill: rgb(228,142,85); fill-rule: nonzero; opacity: 1;" vector-effect="non-scaling-stroke" transform=" translate(-69.22, -171.56)" d="M 138.17 233.81 C 134.88 211.35 102.57999999999998 211.81 91.70999999999998 179.16 C 77.38999999999999 136.16 125.75999999999998 112.09 116.30999999999997 63.019999999999996 C 110.44 32.56 87.57 19.79 74.7 0 L 0 0 L 0 343.11 C 71.44 332.69 143.38 269.4 138.17 233.81 Z" stroke-linecap="round"/>
  </g>
  <g transform="matrix(0.9999999999999999, 0, 0, 0.9999999999999999, 650.4299926757812, 413.6000061035156)">
    <path style="stroke: none; stroke-width: 1; stroke-dasharray: none; stroke-linecap: butt; stroke-dashoffset: 0; stroke-linejoin: miter; stroke-miterlimit: 4; fill: rgb(74,74,74); fill-rule: nonzero; opacity: 1;" vector-effect="non-scaling-stroke" transform=" translate(-433.07, -222.98)" d="M 222.37 0 C 219.54 18.6 219.86 41.51 232.45000000000002 58.92 C 263.38 101.72 327.65000000000003 54.92 411.45000000000005 90.35 C 527.19 139.22 553.73 291.44 554.9100000000001 310.35 C 555.4370904000613 319.47943580060206 554.9777663621171 328.6390947178527 553.5400000000001 337.66999999999996 C 550.1500000000001 356.52000000000004 543.4800000000001 364.05 542.6100000000001 370.47 C 539.8600000000001 390.91 591.4400000000002 433.64000000000004 645.2200000000001 445.95000000000005 L 645.2200000000001 0 Z" stroke-linecap="round"/>
  </g>
  <g transform="matrix(0.9999999999999999, 0, 0, 0.9999999999999999, 390.7799987792969, 726.6900024414062)">
    <path style="stroke: none; stroke-width: 1; stroke-dasharray: none; stroke-linecap: butt; stroke-dashoffset: 0; stroke-linejoin: miter; stroke-miterlimit: 4; fill: rgb(98,98,98); fill-rule: nonzero; opacity: 1;" vector-effect="non-scaling-stroke" transform=" translate(-173.41, -536.06)" d="M 300.53 514.89 C 270.11999999999995 499.72999999999996 250.84999999999997 548.4 203.07999999999998 548.78 C 129.32999999999998 549.36 113.35999999999999 433.85999999999996 44.44999999999999 427.21999999999997 C 30.169999999999987 425.84999999999997 14.899999999999988 429.21999999999997 -1.4210854715202004e-14 436.08 L -1.4210854715202004e-14 645.21 L 346.68 645.21 C 348.7 591.5 329.43 529.29 300.53 514.89 Z" stroke-linecap="round"/>
  </g>
  <g transform="matrix(0.9999999999999999, 0, 0, 0.9999999999999999, 286.5899963378906, 362.17999267578125)">
    <path style="stroke: none; stroke-width: 1; stroke-dasharray: none; stroke-linecap: butt; stroke-dashoffset: 0; stroke-linejoin: miter; stroke-miterlimit: 4; fill: rgb(228,142,85); fill-rule: nonzero; opacity: 1;" vector-effect="non-scaling-stroke" transform=" translate(-69.22, -171.56)" d="M 138.17 233.81 C 134.88 211.35 102.57999999999998 211.81 91.70999999999998 179.16 C 77.38999999999999 136.16 125.75999999999998 112.09 116.30999999999997 63.019999999999996 C 110.44 32.56 87.57 19.79 74.7 0 L 0 0 L 0 343.11 C 71.44 332.69 143.38 269.4 138.17 233.81 Z" stroke-linecap="round"/>
  </g>
  <g transform="matrix(0.9999999999999999, 0, 0, 0.9999999999999999, 629.1300048828125, 751.9600219726562)">
    <path style="stroke: none; stroke-width: 1; stroke-dasharray: none; stroke-linecap: butt; stroke-dashoffset: 0; stroke-linejoin: miter; stroke-miterlimit: 4; fill: rgb(252,223,203); fill-rule: nonzero; opacity: 1;" vector-effect="non-scaling-stroke" transform=" translate(-411.77, -561.33)" d="M 189 595.54 C 203 546.4 230.2 509.96 265.67 492.91999999999996 C 284.01 484.10999999999996 307.05 479.34999999999997 330.67 479.34999999999997 C 366.40000000000003 479.34999999999997 403.38 490.27 427.17 514.5899999999999 C 439.83000000000004 527.53 446.11 541.8799999999999 451.17 553.41 C 456.99 566.6899999999999 461.58000000000004 577.18 472.81 579.0799999999999 C 480.32 580.3599999999999 487.58 577.3799999999999 495.64 569.7199999999999 C 502.64 563.04 509.45 553.6199999999999 516.64 543.6499999999999 C 532.14 522.0999999999999 549.71 497.64999999999986 574.11 497.1199999999999 L 574.94 497.1199999999999 C 589.94 497.1199999999999 598.86 506.5699999999999 610.09 518.4699999999999 C 618.8000000000001 527.7099999999999 629.26 538.8 645.27 548.2799999999999 L 645.27 546 C 630.03 536.77 619.9399999999999 526.07 611.5 517.12 C 599.74 504.65 590.5 494.79 574.07 495.17 C 548.71 495.75 530.83 520.59 515.07 542.51 C 501.2900000000001 561.65 488.2900000000001 579.73 473.14000000000004 577.16 C 462.94000000000005 575.43 458.75000000000006 565.87 452.96000000000004 552.62 C 447.85 540.95 441.49 526.42 428.58000000000004 513.22 C 410.25000000000006 494.48 382.29 482.16 349.86 478.54 C 319.59000000000003 475.17 288.61 479.77000000000004 264.86 491.17 C 246.39 500 230.16 514 216.58 532.66 C 203.81 550.23 193.9 571.2099999999999 187.12 595.01 C 182.49024190731086 611.4033464016019 179.52524543091792 628.2217444936837 178.26999999999998 645.2100000000003 L 180.27 645.21 C 181.49548465047832 628.4010425847251 184.42041293248477 611.7594403204344 189.00000000000003 595.54 Z" stroke-linecap="round"/>
  </g>
  <g transform="matrix(0.9999999999999999, 0, 0, 0.9999999999999999, 610.5599975585938, 396.80999755859375)">
    <path style="stroke: none; stroke-width: 1; stroke-dasharray: none; stroke-linecap: butt; stroke-dashoffset: 0; stroke-linejoin: miter; stroke-miterlimit: 4; fill: rgb(255,198,161); fill-rule: nonzero; opacity: 1;" vector-effect="non-scaling-stroke" transform=" translate(-393.2, -206.19)" d="M 613.41 406.4 C 565.5699999999999 418.87 508.22999999999996 399.4 476.30999999999995 373.76 C 461.35999999999996 361.76 453.00999999999993 349.09 453.38999999999993 339.06 C 453.7299999999999 330.38 460.38999999999993 325.11 468.06999999999994 319.06 C 476.7099999999999 312.22 486.48999999999995 304.47 488.9099999999999 290.06 C 492.2099999999999 270.3 479.0599999999999 255.37 466.3399999999999 240.93 C 455.24999999999994 228.35 444.7799999999999 216.46 446.5499999999999 202.58 C 449.3999999999999 180.35000000000002 481.2299999999999 170.44 511.9999999999999 160.87 C 539.5999999999999 152.29 565.6699999999998 144.18 568.1599999999999 127.45 C 570.2199999999998 113.53 555.5499999999998 94.03 528.8899999999999 75.28 C 503.6601182418362 57.759606948898664 475.37787423595586 45.10907689230514 445.4999999999999 37.98000000000002 C 433.1179626229497 35.04431704053306 420.44488957247967 33.511338114099814 407.7199999999999 33.41000000000001 C 389.2399999999999 33.410000000000004 372.7199999999999 37.120000000000005 359.05999999999995 44.480000000000004 C 339.05999999999995 55.190000000000005 328.3299999999999 71.53 317.90999999999997 87.33000000000001 C 306.15 105.15 295.04999999999995 121.99000000000001 271.90999999999997 126.33000000000001 C 246.44999999999996 131.13000000000002 216.66999999999996 118.60000000000001 188.04999999999995 91.06 C 163.10999999999996 67.06 149.09999999999997 34.5 143.30999999999995 0.060000000000002274 L 141.2 0.060000000000002274 C 143.72473412719347 16.02743130881972 148.28869673895557 31.60472637915649 154.78 46.410000000000025 C 162.3359165711212 63.683572300716065 173.17301148623318 79.32621071469471 186.68999999999997 92.47 C 195.8970161857929 101.48425712775351 206.1342852517145 109.38205847598746 217.19 116.00000000000001 C 236.59 127.33 255.12 131.44 272.25 128.21 C 296.25 123.69000000000001 307.54 106.52000000000001 319.52 88.34 C 329.81 72.74000000000001 340.45 56.61 359.96999999999997 46.13 C 382.03999999999996 34.290000000000006 411.46999999999997 32.13 445.05999999999995 39.82 C 474.6980970563877 46.89082020694568 502.7532633121388 59.43967358536433 527.78 76.81999999999996 C 540.24 85.58 550.4 94.82 557.14 103.50999999999999 C 564.06 112.44 567.21 120.6 566.24 127.11999999999999 C 563.94 142.64 538.4300000000001 150.57 511.43 158.97 C 496.07 163.75 480.2 168.69 467.79 175.31 C 453.56 182.9 445.99 191.72 444.63 202.31 C 442.75 217.06 453.5 229.31 464.89 242.19 C 477.31 256.29 490.15 270.87 487 289.72 C 484.7 303.43 475.23 310.93 466.87 317.55 C 459.14 323.68 451.87 329.46000000000004 451.46 339.03000000000003 C 451.03999999999996 349.84000000000003 459.46 362.73 475.09999999999997 375.32000000000005 C 491.55999999999995 388.56000000000006 514.3299999999999 399.80000000000007 537.56 406.16 C 551.8439155046754 410.15708168109626 566.5976511279008 412.22872543398137 581.43 412.32000000000005 C 592.3795505610686 412.3755228485167 603.2912958617316 411.03129798856446 613.9 408.32000000000005 C 624.935747957859 405.4320678654613 635.4857252539991 400.93375432654494 645.2099999999999 394.96999999999997 L 645.2099999999999 392.70000000000005 C 635.3649105509747 398.85063382222 624.6425937942344 403.46999670169623 613.41 406.4 Z" stroke-linecap="round"/>
  </g>
</svg>